<?xml version="1.0" encoding="UTF-8"?>
<!DOCTYPE svg PUBLIC "-//W3C//DTD SVG 1.1//EN" "http://www.w3.org/Graphics/SVG/1.1/DTD/svg11.dtd">
<!-- Creator: CorelDRAW 2026 -->
<svg xmlns="http://www.w3.org/2000/svg" xml:space="preserve" width="4000px" height="495px" version="1.1" style="shape-rendering:geometricPrecision; text-rendering:geometricPrecision; image-rendering:optimizeQuality; fill-rule:evenodd; clip-rule:evenodd"
viewBox="0 0 3988.31 493.26"
 xmlns:xlink="http://www.w3.org/1999/xlink"
 xmlns:xodm="http://www.corel.com/coreldraw/odm/2003">
 <defs>
  <style type="text/css">
   <![CDATA[
    .fil0 {fill:#1F0BCC}
   ]]>
  </style>
 </defs>
 <g id="Слой_x0020_1">
  <metadata id="CorelCorpID_0Corel-Layer"/>
  <g id="_1655234915744">
   <g>
    <path class="fil0" d="M2816.52 181.76c-1.15,-10.51 -1.53,-72.06 0.46,-80.3 21.78,-1.05 55.9,-1.52 77.36,0.03 52.42,3.78 52.64,74.64 0.96,80.01 -20.56,2.14 -56.97,0.93 -78.78,0.26zm-79.29 212.65c50.76,2.1 109.66,1.1 160.81,0.16 25.81,-0.47 43.29,-10.81 52.45,-28.4 4.92,-9.46 7.31,-21.28 5.14,-33.38 -1.72,-9.57 -7.58,-23.96 -14.39,-27.86 -13.46,13.2 -17.39,23.23 -49.9,24.18 -19.34,0.56 -56.59,1.79 -74.57,-0.53l0.03 -85.61c65.88,-4.57 137.3,-4.61 170.28,53.15 12.26,21.45 12.15,33.6 16.9,59.73 21.06,-1.73 51.72,-109.81 -26.74,-143.05 -3.17,-1.34 -7.71,-2.93 -11.05,-3.73 -6.61,-1.59 -8.82,-0.19 -13.77,-4.03 33.92,-10.52 56.21,-26.75 63.1,-63.37 8.08,-42.99 -15.41,-71.8 -40.92,-86.01 -31.43,-17.51 -69.46,-17.72 -109.91,-17.72 -40.35,0 -88.31,-2.36 -127.73,0.29 -2.88,10.17 -1.96,349.86 0.27,356.18z"/>
    <path class="fil0" d="M3915.71 198.18c4.7,-4.74 6.76,-8.61 11.59,-13.38 7.67,-7.59 53.27,-56.88 56.37,-64.4 -23.46,-0.5 -47.1,0.05 -70.59,-0.16 -16.47,-0.14 -17.14,0.9 -24.76,10.65l-49.36 55.41c-3.74,3.81 -4.72,6.27 -8.28,10.09l-23.46 24.91 -0.26 -205.76 -78.75 0.12 0.62 377.5 77.83 -0.13 0.39 -61.01c0,-18.65 3.38,-16.49 12.29,-27.22 2.98,-3.6 16.39,-18.22 18.87,-19.84 5.93,4.95 49.77,92.45 58.64,108.58l91.46 -0.15c-1.69,-12.58 -85.55,-144.94 -95.54,-169.54l22.94 -25.67z"/>
    <path class="fil0" d="M3207.09 193.09c37.07,-5.96 69.22,23.18 73.34,54.06 5.1,38.16 -22.37,69.11 -54.68,73.14 -86.62,10.8 -105.6,-113.24 -18.66,-127.2zm-131.98 79.02c9.59,73.49 72.89,131.76 157.2,123.07 70.53,-7.27 132.81,-71.64 123.92,-154.25 -7.55,-70.08 -74.69,-133.37 -156.29,-122.73 -78.86,10.28 -134.59,79.11 -124.83,153.91z"/>
    <path class="fil0" d="M3600.22 270.45c-4.58,18.09 -13.79,29.66 -26.22,38.65 -12.77,9.23 -33.17,14.89 -52.87,10.38 -30.01,-6.88 -58.97,-37.86 -49.07,-77.47 7.52,-30.08 39.47,-56.72 78.2,-48.05 29.48,6.59 59.66,38.2 49.96,76.49zm-80.81 -151.61c-108.9,16.2 -153.53,124.42 -105.51,208.11l22.48 29.15c29.19,26.03 67.3,45.35 118.5,38.78 69.88,-8.97 133.38,-74.56 121.07,-156.73 -10.45,-69.79 -75.58,-131.35 -156.54,-119.31z"/>
    <path class="fil0" d="M2362.73 54.11c0.03,41.05 0,82.1 0,123.15 0,37.5 -2.87,82.18 5.88,116.71 15.24,60.17 67.81,104.62 139.95,104.63l19.97 0c39.88,0 80.26,-20.75 100.03,-39.79 23.78,-22.9 38.56,-61.19 40.93,-96.29 -5.95,1.18 -20.55,17.6 -26.29,22.71 -8.91,7.91 -17.92,14.48 -28.06,21.89 -64.34,47.01 -171.28,34.84 -171.26,-66.63l-0.14 -201.56c-18.85,-0.58 -61.75,-1.29 -80.95,0.76l-0.06 14.42z"/>
    <path class="fil0" d="M2589.34 261.29c32.22,-6.25 73.57,-42.7 79.6,-73.26 2.71,-13.76 1.7,-127.74 1.16,-149.31l-80.02 0.51 -0.74 222.06z"/>
   </g>
   <g>
    <path class="fil0" d="M1272.77 276.32c-4.78,19.57 -9.71,32.1 -23.23,43.76 -10.93,9.42 -32.59,18.29 -53.33,12.06 -17.72,-5.31 -30.88,-16.34 -39.19,-29.52 -7.3,-11.6 -5.53,-13.53 -5.53,-28.81 0,-11.67 0.02,-23.34 0,-35.01 -0.03,-15.69 -0.6,-16.68 7.1,-27.25 29.81,-40.94 86.07,-38.36 107.19,6.07 6.83,14.36 11.39,40.68 6.99,58.7zm-115.9 -113.77l-4.83 5.9c-0.65,-0.88 -2.18,0.96 -2.17,-9.65l-0.13 -31.96 -73.85 -0.6 -0.41 366.43c10.49,0.52 67.86,1.25 74.31,-0.57l1.63 -140.36c0.14,-0.3 0.37,-0.73 0.62,-1.05 2.16,1.92 1.64,1.19 3.69,4.29 2.98,13.45 32.27,33.67 52.52,38.8 26.94,6.84 57.59,1.78 78.56,-8.92 86.64,-44.2 83.52,-202.3 1.72,-248.87 -31.77,-18.09 -77.49,-18.97 -108.86,2.84 -5.65,3.93 -20.36,16.02 -22.8,23.72z"/>
    <path class="fil0" d="M2016.77 240.47c4.03,5.4 2.01,69.28 2.01,75.86 0,24.84 -1.43,54.29 0.21,78.56l74.02 0.37c2.25,-32.53 0.05,-152.08 -0.86,-190.38 -0.7,-36.2 -33.16,-77.95 -78.52,-81.25 -25.08,-1.82 -45.39,0.5 -64.37,13.25 -20.47,13.76 -22.43,22.58 -36.61,42.75l-0.7 -52.84 -75.64 -0.38 -0.54 268.58c11.76,0.58 69.63,1.99 75.52,-0.97 2.69,-7.67 0.75,-72.28 0.75,-86.44 0,-30.45 -2.98,-55.49 9.09,-79.94 30.28,-61.38 99.32,-28.36 95.64,12.83z"/>
    <path class="fil0" d="M1697.23 313.83c-17.04,46.6 -108.19,41.7 -95.05,-12.65 7.78,-32.2 53.62,-41 88.65,-22.13 7.63,4.11 8.11,3.24 8.04,13.45 -0.04,7.12 0.55,15.31 -1.64,21.33zm-147.54 -162.56c0.26,4.26 19.11,42.11 23.75,48.54 11.98,-1.74 46.96,-24.2 85.66,-17.54 14.48,2.49 26.7,9.74 32.71,19.41 8.15,13.11 6.88,28.59 7.02,46.6 -9.41,-2.65 -21.14,-17.74 -50.33,-20.41 -55.52,-5.08 -119.66,26.3 -117.84,92.25 1.13,40.81 26.7,69.58 63.9,76.53 18.41,3.44 45.19,2.66 62.93,-2.62 30.02,-8.95 34.15,-25.8 41.94,-29.1l0.33 29.46 73.06 0c1.93,-7.79 0.73,-113.46 0.73,-130.58 0,-45.2 3.88,-80.29 -21.76,-109.58 -44.24,-50.55 -145.48,-33.77 -202.1,-2.96z"/>
    <path class="fil0" d="M679.69 305.08c0.01,43.88 -90.02,58.99 -97.14,10.99 -3.81,-25.69 15.15,-40.61 36.87,-45.65 16.68,-3.87 36.48,0.04 51.44,8.12 10.75,5.81 8.82,4.67 8.83,26.54zm-149.39 -154.08c0.74,4.7 20.94,44.42 24.02,48.77 5.25,-0.57 28.47,-11.17 38.31,-13.78 13.91,-3.7 32.04,-6.44 47.47,-3.79 39.2,6.74 40.86,35.68 39.43,66.65 -5.3,-2.14 -14.52,-9.98 -21.86,-13.29 -53.87,-24.29 -148.17,5.41 -146.08,84.53 1.12,42.4 26.87,68.31 63.57,76.56 28.86,6.49 73.43,2.24 95.79,-22.48 2.96,-3.27 5.16,-7.53 9.43,-9.16l0.27 29.31 73.04 0.06c1.88,-6.92 0.76,-114.17 0.76,-130.57 0,-44.32 3.63,-81.24 -21.68,-109.64 -41.05,-46.05 -125.02,-35.61 -178.84,-13.37 -7.58,3.13 -16.55,7.74 -23.63,10.2z"/>
    <path class="fil0" d="M0 222.63c40.24,0.06 88.21,-0.74 127.52,0.24 4.21,25.69 0.66,32.26 12.42,62.73 20.09,52.03 65.27,92.22 121.42,107.25 62.61,16.75 129.44,5.23 179.55,-33.61 8.36,-6.48 35.5,-31.07 35.71,-40.41 -8.98,-4.73 -64.34,-30.09 -71.11,-31.18 -9.93,9.19 -13.16,15.86 -27.53,24.99 -41.23,26.21 -87.86,22.99 -123.66,-2.72 -41.3,-29.66 -60.18,-82.55 -39.06,-131.35 1.76,-4.06 8.21,-14.95 8.58,-18.07 -48.4,-1.02 -97.45,-0.08 -145.95,-0.09 -17.25,-0.01 -17.22,-3.28 -27.45,7.17l-34.17 35.89c-4.1,4.22 -15.08,14.61 -16.27,19.16z"/>
    <path class="fil0" d="M825.15 314.41l-22.33 47.94c12.67,12.45 42.36,25.47 62.69,30.6 46.96,11.84 111.82,9.93 142.03,-33.56 14.18,-20.42 17.14,-49.87 7.35,-74.84 -8.24,-21.02 -30.45,-34.38 -50.9,-42.6 -13.74,-5.53 -58.73,-20.21 -67.78,-26.21 -25.64,-16.99 -13.34,-59.94 64.86,-29.8 8.94,3.45 27.99,14.03 33.93,14.61 4.07,-11.47 21.5,-40.63 23.21,-49.28 -11.82,-10.14 -46.34,-21.84 -66.08,-25.3 -48.91,-8.57 -109.82,-2.02 -130.66,47.31 -10.09,23.87 -7.64,56.86 5.98,75.06 31.7,42.41 106.59,38.68 119.41,65.46 6.53,13.64 -2.52,24.94 -14.33,29.14 -25.19,8.97 -67.71,-6.96 -90.91,-20.12 -5.88,-3.33 -9.6,-7.52 -16.47,-8.41z"/>
    <path class="fil0" d="M1404.76 392.98l73.02 -0.09c2.72,-8.22 1.68,-239.97 0.64,-266.35l-73.66 -0.06 0 266.5z"/>
    <path class="fil0" d="M166.9 110.91c27.48,1.41 58.22,0.18 86.06,0.18 11.24,0 123.49,1.84 128.79,-1.18 3.3,-1.88 17.16,-17.51 21.63,-22.06 5.16,-5.25 40.12,-40.21 42.15,-45.34 -27.06,-1.64 -58.72,-0.2 -86.28,-0.2 -28.59,0 -57.06,-1.49 -83.52,3.98 -24.31,5.03 -44.17,12.1 -62.83,23.54 -13.15,8.06 -43.12,30.61 -46,41.08z"/>
    <path class="fil0" d="M1432.54 1.14c-56.17,12.52 -40.84,95.83 18.89,84.12 21.35,-4.19 38.38,-24.62 32.27,-51.79 -4.72,-20.95 -25.07,-38.14 -51.16,-32.33z"/>
   </g>
  </g>
 </g>
</svg>
